# xmcd
#
# Track frame offsets:
#	150
#	21578
#	38745
#	53265
#	67051
#	83336
#	100165
#	118124
#	134872
#	152928
#	170973
#	189345
#	205914
#	221462
#	240635
#	258883
#	273883
#	289557
#	306102
#	322894
#	338836
#
# Disc length: 4693 seconds
#
# Revision: 1
# Processed by: cddbd v1.5.2PL0 Copyright (c) Steve Scherf et al.
# Submitted via: dBpowerAMP V4.0
#
DISCID=2e125315
DTITLE=Various Artist - Erg Nct 182 
DYEAR=2009
DGENRE=Country
TTITLE0=Brad Paisley - Welcome To The Future
TTITLE1=Emerson Drive - I Love This Road
TTITLE2=Tim McGraw - It's A Business Doing Pleasure With You
TTITLE3=Craig Morgan - Bonfire
TTITLE4=Aaron Pritchett - Hard To Miss
TTITLE5=Keith Urban - Only You Can Love Me This Way
TTITLE6=Eli Young Band - Radio Waves
TTITLE7=Terri Clark - Gypsy Boots
TTITLE8=Gary Allan - Today
TTITLE9=Doc Walker - Coming Home
TTITLE10=Jason Michael Carroll - Hurry Home
TTITLE11=Johnny Reid - Dance With Me
TTITLE12=Victoria Banks - When You Can Fly
TTITLE13=Lost Trailers, The - All This Love
TTITLE14=Rankin Family. The - Straight Into Love
TTITLE15=Sara Evans - Feels Just Like A Love Song
TTITLE16=Darren McGinnis - Still Get To Me
TTITLE17=John Rich - The Good Lord And The Man
TTITLE18=Lisa Brokop - Just Another Song
TTITLE19=Whitney Duncan - Skinny Dippin'
TTITLE20=Brady Seals - Ho Down
EXTD=
EXTT0=
EXTT1=
EXTT2=
EXTT3=
EXTT4=
EXTT5=
EXTT6=
EXTT7=
EXTT8=
EXTT9=
EXTT10=
EXTT11=
EXTT12=
EXTT13=
EXTT14=
EXTT15=
EXTT16=
EXTT17=
EXTT18=
EXTT19=
EXTT20=
PLAYORDER=
